<?xml version="1.0" encoding="UTF-8"?>
<svg width="166px" height="6px" viewBox="0 0 166 6" version="1.1" xmlns="http://www.w3.org/2000/svg" xmlns:xlink="http://www.w3.org/1999/xlink">
    <!-- Generator: Sketch 56.3 (81716) - https://sketch.com -->
    <title>Combined shape 241</title>
    <desc>Created with Sketch.</desc>
    <g id="Page-1" stroke="none" stroke-width="1" fill="none" fill-rule="evenodd">
        <g id="Artboard" transform="translate(-161.000000, -196.000000)" fill="#696969">
            <g id="Slider" transform="translate(160.000000, 177.000000)">
                <path d="M1,19.000012 L1.999984,19.000012 L1.999984,25.000006 L1,25.000006 L1,19.000012 Z M15.999926,19.000012 L17.000076,19.000012 L17.000076,25.000006 L15.999926,25.000006 L15.999926,19.000012 Z M3.999952,19.000012 L4.999936,19.000012 L4.999936,22.000006 L3.999952,22.000006 L3.999952,19.000012 Z M7.00007,19.000012 L8.000054,19.000012 L8.000054,22.000006 L7.00007,22.000006 L7.00007,19.000012 Z M10.000022,19.000012 L11.000006,19.000012 L11.000006,22.000006 L10.000022,22.000006 L10.000022,19.000012 Z M12.999974,19.000012 L13.999958,19.000012 L13.999958,22.000006 L12.999974,22.000006 L12.999974,19.000012 Z M31.000018,19.000012 L32.000002,19.000012 L32.000002,25.000006 L31.000018,25.000006 L31.000018,19.000012 Z M19.000044,19.000012 L20.000028,19.000012 L20.000028,22.000006 L19.000044,22.000006 L19.000044,19.000012 Z M21.999996,19.000012 L22.99998,19.000012 L22.99998,22.000006 L21.999996,22.000006 L21.999996,19.000012 Z M24.999948,19.000012 L25.999932,19.000012 L25.999932,22.000006 L24.999948,22.000006 L24.999948,19.000012 Z M28.000066,19.000012 L29.00005,19.000012 L29.00005,22.000006 L28.000066,22.000006 L28.000066,19.000012 Z M45.999944,19.000012 L47.000094,19.000012 L47.000094,25.000006 L45.999944,25.000006 L45.999944,19.000012 Z M33.99997,19.000012 L34.999954,19.000012 L34.999954,22.000006 L33.99997,22.000006 L33.99997,19.000012 Z M36.999922,19.000012 L38.000072,19.000012 L38.000072,22.000006 L36.999922,22.000006 L36.999922,19.000012 Z M40.00004,19.000012 L41.000024,19.000012 L41.000024,22.000006 L40.00004,22.000006 L40.00004,19.000012 Z M42.999992,19.000012 L43.999976,19.000012 L43.999976,22.000006 L42.999992,22.000006 L42.999992,19.000012 Z M61.000036,19.000012 L62.00002,19.000012 L62.00002,25.000006 L61.000036,25.000006 L61.000036,19.000012 Z M49.000062,19.000012 L50.000046,19.000012 L50.000046,22.000006 L49.000062,22.000006 L49.000062,19.000012 Z M52.000014,19.000012 L52.999998,19.000012 L52.999998,22.000006 L52.000014,22.000006 L52.000014,19.000012 Z M54.999966,19.000012 L55.99995,19.000012 L55.99995,22.000006 L54.999966,22.000006 L54.999966,19.000012 Z M58.000084,19.000012 L59.000068,19.000012 L59.000068,22.000006 L58.000084,22.000006 L58.000084,19.000012 Z M75.999962,19.000012 L76.999946,19.000012 L76.999946,25.000006 L75.999962,25.000006 L75.999962,19.000012 Z M63.999988,19.000012 L64.999972,19.000012 L64.999972,22.000006 L63.999988,22.000006 L63.999988,19.000012 Z M66.99994,19.000012 L67.999924,19.000012 L67.999924,22.000006 L66.99994,22.000006 L66.99994,19.000012 Z M70.000058,19.000012 L71.000042,19.000012 L71.000042,22.000006 L70.000058,22.000006 L70.000058,19.000012 Z M73.00001,19.000012 L73.999994,19.000012 L73.999994,22.000006 L73.00001,22.000006 L73.00001,19.000012 Z M91.000054,19.000012 L92.000038,19.000012 L92.000038,25.000006 L91.000054,25.000006 L91.000054,19.000012 Z M79.00008,19.000012 L80.000064,19.000012 L80.000064,22.000006 L79.00008,22.000006 L79.00008,19.000012 Z M82.000032,19.000012 L83.000016,19.000012 L83.000016,22.000006 L82.000032,22.000006 L82.000032,19.000012 Z M84.999984,19.000012 L85.999968,19.000012 L85.999968,22.000006 L84.999984,22.000006 L84.999984,19.000012 Z M87.999936,19.000012 L88.99992,19.000012 L88.99992,22.000006 L87.999936,22.000006 L87.999936,19.000012 Z M105.99998,19.000012 L106.999964,19.000012 L106.999964,25.000006 L105.99998,25.000006 L105.99998,19.000012 Z M94.000006,19.000012 L94.99999,19.000012 L94.99999,22.000006 L94.000006,22.000006 L94.000006,19.000012 Z M96.999958,19.000012 L97.999942,19.000012 L97.999942,22.000006 L96.999958,22.000006 L96.999958,19.000012 Z M100.000076,19.000012 L101.00006,19.000012 L101.00006,22.000006 L100.000076,22.000006 L100.000076,19.000012 Z M103.000028,19.000012 L104.000012,19.000012 L104.000012,22.000006 L103.000028,22.000006 L103.000028,19.000012 Z M121.000072,19.000012 L122.000056,19.000012 L122.000056,25.000006 L121.000072,25.000006 L121.000072,19.000012 Z M108.999932,19.000012 L110.000082,19.000012 L110.000082,22.000006 L108.999932,22.000006 L108.999932,19.000012 Z M112.00005,19.000012 L113.000034,19.000012 L113.000034,22.000006 L112.00005,22.000006 L112.00005,19.000012 Z M115.000002,19.000012 L115.999986,19.000012 L115.999986,22.000006 L115.000002,22.000006 L115.000002,19.000012 Z M117.999954,19.000012 L118.999938,19.000012 L118.999938,22.000006 L117.999954,22.000006 L117.999954,19.000012 Z M135.999998,19.000012 L136.999982,19.000012 L136.999982,25.000006 L135.999998,25.000006 L135.999998,19.000012 Z M124.000024,19.000012 L125.000008,19.000012 L125.000008,22.000006 L124.000024,22.000006 L124.000024,19.000012 Z M126.999976,19.000012 L127.99996,19.000012 L127.99996,22.000006 L126.999976,22.000006 L126.999976,19.000012 Z M129.999928,19.000012 L131.000078,19.000012 L131.000078,22.000006 L129.999928,22.000006 L129.999928,19.000012 Z M133.000046,19.000012 L134.00003,19.000012 L134.00003,22.000006 L133.000046,22.000006 L133.000046,19.000012 Z M151.00009,19.000012 L152.000074,19.000012 L152.000074,25.000006 L151.00009,25.000006 L151.00009,19.000012 Z M138.99995,19.000012 L139.999934,19.000012 L139.999934,22.000006 L138.99995,22.000006 L138.99995,19.000012 Z M142.000068,19.000012 L143.000052,19.000012 L143.000052,22.000006 L142.000068,22.000006 L142.000068,19.000012 Z M145.00002,19.000012 L146.000004,19.000012 L146.000004,22.000006 L145.00002,22.000006 L145.00002,19.000012 Z M147.999972,19.000012 L148.999956,19.000012 L148.999956,22.000006 L147.999972,22.000006 L147.999972,19.000012 Z M166.000016,19.000012 L167,19.000012 L167,25.000006 L166.000016,25.000006 L166.000016,19.000012 Z M154.000042,19.000012 L155.000026,19.000012 L155.000026,22.000006 L154.000042,22.000006 L154.000042,19.000012 Z M156.999994,19.000012 L157.999978,19.000012 L157.999978,22.000006 L156.999994,22.000006 L156.999994,19.000012 Z M159.999946,19.000012 L160.99993,19.000012 L160.99993,22.000006 L159.999946,22.000006 L159.999946,19.000012 Z M163.000064,19.000012 L164.000048,19.000012 L164.000048,22.000006 L163.000064,22.000006 L163.000064,19.000012 Z" id="Combined-shape-241"></path>
            </g>
        </g>
    </g>
</svg>